<?xml version="1.0" encoding="utf-8"?>
<svg version="1.1" xmlns="http://www.w3.org/2000/svg" style="display: none;" width="752" height="160" viewBox="0 0 752 160">
<symbol id="icon-setting" viewBox="0 0 33 32"><path d="M31 0h-29c-0.822 0-2 1.178-2 2v28c0 0.822 1.178 2 2 2h29c0.822 0 2-1.178 2-2v-28c0-0.822-1.178-2-2-2zM32 30c-0.006 0.284-0.716 0.994-1 1h-29c-0.284-0.006-0.994-0.716-1-1v-28c0.006-0.284 0.716-0.994 1-1h29c0.284 0.006 0.994 0.716 1 1v28zM16.5 5.5c-1.103 0-2 0.897-2 2s0.897 2 2 2 2-0.897 2-2-0.897-2-2-2zM16.5 8.5c-0.551 0-1-0.449-1-1s0.449-1 1-1 1 0.449 1 1-0.449 1-1 1zM24.5 21.5c-1.103 0-2 0.897-2 2s0.897 2 2 2 2-0.897 2-2-0.897-2-2-2zM24.5 24.5c-0.551 0-1-0.449-1-1s0.449-1 1-1 1 0.449 1 1-0.449 1-1 1zM8.5 16.5c-1.103 0-2 0.897-2 2s0.897 2 2 2 2-0.897 2-2-0.897-2-2-2zM8.5 19.5c-0.551 0-1-0.449-1-1s0.449-1 1-1 1 0.449 1 1-0.449 1-1 1zM8.5 15c0.276 0 0.5-0.224 0.5-0.5v-9c0-0.276-0.224-0.5-0.5-0.5s-0.5 0.224-0.5 0.5v9c0 0.276 0.224 0.5 0.5 0.5zM8.5 22c-0.276 0-0.5 0.224-0.5 0.5v3c0 0.276 0.224 0.5 0.5 0.5s0.5-0.224 0.5-0.5v-3c0-0.276-0.224-0.5-0.5-0.5zM16.5 11c-0.276 0-0.5 0.224-0.5 0.5v14c0 0.276 0.224 0.5 0.5 0.5s0.5-0.224 0.5-0.5v-14c0-0.276-0.224-0.5-0.5-0.5zM24.5 20c0.276 0 0.5-0.224 0.5-0.5v-14c0-0.276-0.224-0.5-0.5-0.5s-0.5 0.224-0.5 0.5v14c0 0.276 0.224 0.5 0.5 0.5z"></path></symbol>
<symbol id="icon-dashboard" viewBox="0 0 32 32"><path d="M29.334 3h-4.334v-2c0-0.553-0.447-1-1-1s-1 0.447-1 1v2h-6v-2c0-0.553-0.448-1-1-1s-1 0.447-1 1v2h-6v-2c0-0.553-0.448-1-1-1s-1 0.447-1 1v2h-4.333c-1.473 0-2.667 1.193-2.667 2.666v23.667c0 1.473 1.194 2.667 2.667 2.667h26.667c1.473 0 2.666-1.194 2.666-2.667v-23.667c0-1.473-1.193-2.666-2.666-2.666zM30 29.333c0 0.368-0.299 0.667-0.666 0.667h-26.667c-0.368 0-0.667-0.299-0.667-0.667v-23.667c0-0.367 0.299-0.666 0.667-0.666h4.333v2c0 0.553 0.448 1 1 1s1-0.447 1-1v-2h6v2c0 0.553 0.448 1 1 1s1-0.447 1-1v-2h6v2c0 0.553 0.447 1 1 1s1-0.447 1-1v-2h4.334c0.367 0 0.666 0.299 0.666 0.666v23.667zM7 12h4v3h-4zM7 17h4v3h-4zM7 22h4v3h-4zM14 22h4v3h-4zM14 17h4v3h-4zM14 12h4v3h-4zM21 22h4v3h-4zM21 17h4v3h-4zM21 12h4v3h-4z"></path></symbol>
<symbol id="icon-google" viewBox="0 0 20 20"><path d="M1.989 5.589c0 1.494 0.499 2.572 1.482 3.205 0.806 0.52 1.74 0.598 2.226 0.598 0.118 0 0.213-0.006 0.279-0.010 0 0-0.154 1.004 0.59 1.996h-0.034c-1.289 0-5.493 0.269-5.493 3.727 0 3.516 3.861 3.695 4.636 3.695 0.061 0 0.097-0.002 0.097-0.002 0.008 0 0.063 0.002 0.158 0.002 0.497 0 1.782-0.062 2.975-0.643 1.548-0.75 2.333-2.059 2.333-3.885 0-1.764-1.196-2.814-2.069-3.582-0.533-0.469-0.994-0.873-0.994-1.266 0-0.4 0.337-0.701 0.762-1.082 0.689-0.615 1.339-1.492 1.339-3.15 0-1.457-0.189-2.436-1.354-3.057 0.121-0.062 0.551-0.107 0.763-0.137 0.631-0.086 1.554-0.184 1.554-0.699v-0.099h-4.599c-0.046 0.002-4.651 0.172-4.651 4.389zM9.413 14.602c0.088 1.406-1.115 2.443-2.922 2.574-1.835 0.135-3.345-0.691-3.433-2.096-0.043-0.676 0.254-1.336 0.835-1.863 0.589-0.533 1.398-0.863 2.278-0.928 0.104-0.006 0.207-0.012 0.31-0.012 1.699 0.001 2.849 0.999 2.932 2.325zM8.212 4.626c0.451 1.588-0.23 3.246-1.316 3.553-0.125 0.035-0.253 0.052-0.384 0.052-0.994 0-1.979-1.006-2.345-2.393-0.204-0.776-0.187-1.458 0.047-2.112 0.229-0.645 0.643-1.078 1.163-1.225 0.125-0.035 0.254-0.053 0.385-0.053 1.2 0 1.972 0.498 2.45 2.178zM16 8v-3h-2v3h-3v2h3v3h2v-3h3v-2h-3z"></path></symbol>
<symbol id="icon-users" viewBox="0 0 20 28"><path d="M20 21.859c0 2.281-1.5 4.141-3.328 4.141h-13.344c-1.828 0-3.328-1.859-3.328-4.141 0-4.109 1.016-8.859 5.109-8.859 1.266 1.234 2.984 2 4.891 2s3.625-0.766 4.891-2c4.094 0 5.109 4.75 5.109 8.859zM16 8c0 3.313-2.688 6-6 6s-6-2.688-6-6 2.688-6 6-6 6 2.688 6 6z"></path></symbol>
<symbol id="icon-bell-o" viewBox="0 0 28 28"><path d="M14.25 26.5c0-0.141-0.109-0.25-0.25-0.25-1.234 0-2.25-1.016-2.25-2.25 0-0.141-0.109-0.25-0.25-0.25s-0.25 0.109-0.25 0.25c0 1.516 1.234 2.75 2.75 2.75 0.141 0 0.25-0.109 0.25-0.25zM3.844 22h20.312c-2.797-3.156-4.156-7.438-4.156-13 0-2.016-1.906-5-6-5s-6 2.984-6 5c0 5.563-1.359 9.844-4.156 13zM27 22c0 1.094-0.906 2-2 2h-7c0 2.203-1.797 4-4 4s-4-1.797-4-4h-7c-1.094 0-2-0.906-2-2 2.312-1.953 5-5.453 5-13 0-3 2.484-6.281 6.625-6.891-0.078-0.187-0.125-0.391-0.125-0.609 0-0.828 0.672-1.5 1.5-1.5s1.5 0.672 1.5 1.5c0 0.219-0.047 0.422-0.125 0.609 4.141 0.609 6.625 3.891 6.625 6.891 0 7.547 2.688 11.047 5 13z"></path></symbol>
<symbol id="icon-stats-bars" viewBox="0 0 32 32"><path d="M0 26h32v4h-32zM4 18h4v6h-4zM10 10h4v14h-4zM16 16h4v8h-4zM22 4h4v20h-4z"></path></symbol>
<svg><symbol id="icon-facebook" viewBox="0 0 32 32"><path d="M19 6h5v-6h-5c-3.86 0-7 3.14-7 7v3h-4v6h4v16h6v-16h5l1-6h-6v-3c0-0.542 0.458-1 1-1z"></path></symbol>
<symbol id="icon-twitter" viewBox="0 0 32 32"><path d="M32 7.075c-1.175 0.525-2.444 0.875-3.769 1.031 1.356-0.813 2.394-2.1 2.887-3.631-1.269 0.75-2.675 1.3-4.169 1.594-1.2-1.275-2.906-2.069-4.794-2.069-3.625 0-6.563 2.938-6.563 6.563 0 0.512 0.056 1.012 0.169 1.494-5.456-0.275-10.294-2.888-13.531-6.862-0.563 0.969-0.887 2.1-0.887 3.3 0 2.275 1.156 4.287 2.919 5.463-1.075-0.031-2.087-0.331-2.975-0.819 0 0.025 0 0.056 0 0.081 0 3.181 2.263 5.838 5.269 6.437-0.55 0.15-1.131 0.231-1.731 0.231-0.425 0-0.831-0.044-1.237-0.119 0.838 2.606 3.263 4.506 6.131 4.563-2.25 1.762-5.075 2.813-8.156 2.813-0.531 0-1.050-0.031-1.569-0.094 2.913 1.869 6.362 2.95 10.069 2.95 12.075 0 18.681-10.006 18.681-18.681 0-0.287-0.006-0.569-0.019-0.85 1.281-0.919 2.394-2.075 3.275-3.394z"></path></symbol>
<symbol id="icon-finger" viewBox="0 0 512.341 512.341"><path d="M296.642 252.267c-9.408-27.912-39.663-42.913-67.575-33.504-26.161 8.818-41.268 36.142-34.825 62.987 19.2 66.752 89.429 126.656 153.749 177.557 4.619 3.658 11.328 2.88 14.987-1.739 3.658-4.619 2.88-11.328-1.739-14.987-61.739-48.853-129.045-106.048-146.496-166.72-4.884-16.996 4.935-34.732 21.931-39.616s34.732 4.935 39.616 21.931c11.648 40.533 69.568 90.624 124.672 134.229 4.619 3.658 11.328 2.88 14.987-1.739 3.658-4.619 2.88-11.328-1.739-14.987-29.098-22.975-106.154-83.946-117.568-123.412z"/><path d="M377.496 224.768c-23.19-71.1-98.323-111.263-170.325-91.051-73.613 21.122-116.165 97.921-95.042 171.534l.045.157c17.515 60.843-20.032 77.717-32 81.429-5.62 1.767-8.743 7.756-6.976 13.376 1.767 5.62 7.756 8.743 13.376 6.976 32.619-10.197 64.299-44.501 46.101-107.691-17.94-62.269 17.996-127.29 80.264-145.23l.098-.028c61.568-17.306 125.716 17.587 144.64 78.677a10.09 10.09 0 001.067 2.368c1.109 1.835 3.392 5.696 71.957 61.333 4.571 3.717 11.291 3.025 15.008-1.547 3.717-4.571 3.025-11.291-1.547-15.008-24.917-20.223-61.333-50.282-66.666-55.295z"/><path d="M337.688 240.469c-14.733-50.875-67.83-80.261-118.763-65.728-50.011 15.44-79.038 67.48-65.899 118.144 21.547 98.133 5.44 120.789-38.763 134.613-5.62 1.767-8.743 7.756-6.976 13.376s7.756 8.743 13.376 6.976c61.76-19.2 75.179-59.563 53.333-159.552-10.613-39.648 11.825-80.634 50.944-93.056 39.638-11.253 80.922 11.624 92.395 51.2 4.267 14.549 15.595 34.517 102.955 103.659 4.619 3.658 11.328 2.88 14.987-1.739 3.658-4.619 2.88-11.328-1.739-14.987-79.296-62.719-92.864-82.58-95.85-92.906z"/><path d="M367.042 388.949c-36.096-27.392-96.512-73.216-111.381-124.885-1.724-5.633-7.689-8.802-13.322-7.077a10.667 10.667 0 00-7.18 12.965c16.811 58.496 80.768 107.008 118.976 136a283.053 283.053 0 0122.4 17.92c4.237 4.093 10.99 3.976 15.083-.261 3.993-4.134 3.993-10.688 0-14.821a279.919 279.919 0 00-24.576-19.841zM309.314 463.147a69.675 69.675 0 00-53.205-36.139c-36.267 0-41.877 61.653-42.667 74.005-.365 5.879 4.105 10.941 9.984 11.307h.683a10.667 10.667 0 0010.667-10.005c1.344-21.973 9.749-53.973 21.333-53.973 15.808 0 27.029 15.232 36.032 27.456a114.978 114.978 0 009.749 12.075c4.237 4.093 10.99 3.975 15.083-.262a10.666 10.666 0 000-14.821 94.796 94.796 0 01-7.659-9.643zM212.952 370.432c-2.005-5.539-8.121-8.404-13.66-6.399a10.667 10.667 0 00-6.67 12.799c9.131 28.523-8.811 84.501-35.797 93.269-5.622 1.76-8.753 7.744-6.994 13.366 1.76 5.622 7.744 8.753 13.366 6.994.074-.023.147-.047.22-.072 41.044-13.226 60.841-84.522 49.535-119.957z"/><path d="M440.728 224.853c-13.333-4.267-23.808-21.333-35.947-40.811-25.685-41.515-60.907-98.368-159.339-98.368-100.099.118-181.216 81.235-181.333 181.334 0 5.891 4.776 10.667 10.667 10.667s10.667-4.776 10.667-10.667c.094-88.327 71.673-159.906 160-160 86.549 0 116.864 48.939 141.227 88.277 14.336 23.147 26.709 43.136 47.488 49.877 5.583 1.881 11.633-1.12 13.514-6.702 1.881-5.583-1.12-11.633-6.702-13.514-.073-.025-.146-.048-.22-.072l-.022-.021zM85.442 352.341c5.891 0 10.667-4.776 10.666-10.667 0-1.659-.387-3.295-1.13-4.778a94.532 94.532 0 01-9.536-27.221c0-5.891-4.776-10.667-10.667-10.667s-10.667 4.776-10.667 10.667a109.046 109.046 0 0011.797 36.779 10.671 10.671 0 009.537 5.887z"/><path d="M79.896 126.784c5.03 3.066 11.594 1.475 14.66-3.555l.017-.029c9.259-15.275 54.869-58.859 140.203-58.859 82.005 0 140.352 41.536 150.869 58.859 3.057 5.037 9.619 6.641 14.656 3.584 5.037-3.057 6.641-9.619 3.584-14.656-14.635-24.107-79.253-69.12-169.109-69.12-95.552 0-146.773 49.899-158.464 69.141-3.045 5.032-1.441 11.579 3.584 14.635z"/><path d="M143.042 42.069c4.885-2.133 9.024-4.267 12.949-6.4 16.043-8.085 27.584-13.995 78.784-13.995a241.97 241.97 0 01101.397 16.235c4.075 1.515 8.171 3.029 12.459 4.501 1.118.388 2.293.59 3.477.597 5.891.011 10.675-4.756 10.686-10.647a10.667 10.667 0 00-7.209-10.11c-4.139-1.429-8.064-2.88-11.989-4.267A263.037 263.037 0 00234.776.341c-56.405 0-70.528 7.253-88.448 16.448-3.605 1.856-7.445 3.819-11.925 5.824-5.474 2.176-8.148 8.378-5.973 13.852 2.176 5.474 8.378 8.148 13.852 5.973.28-.111.555-.234.824-.369h-.064zM427.266 184.917c2.005 5.539 8.121 8.404 13.66 6.399a10.667 10.667 0 006.67-12.799 269.094 269.094 0 00-22.421-45.013c-3.087-5.019-9.658-6.586-14.677-3.499s-6.586 9.658-3.499 14.677a252.549 252.549 0 0120.267 40.235z"/><path d="M354.541 461.611a10.668 10.668 0 01-6.613-2.304c-64.32-50.923-134.485-110.805-153.685-177.557-6.875-28.642 10.771-57.433 39.413-64.308 26.845-6.443 54.169 8.664 62.987 34.825 11.349 39.445 88.405 100.437 117.333 123.392 4.731 3.511 5.72 10.192 2.209 14.922s-10.192 5.72-14.922 2.209a11.17 11.17 0 01-.514-.406c-55.104-43.605-113.067-93.675-124.693-134.229-4.884-16.99-22.616-26.804-39.605-21.92-16.99 4.884-26.804 22.616-21.92 39.605 17.451 60.672 84.757 117.867 146.475 166.72 4.619 3.657 5.398 10.366 1.741 14.984a10.666 10.666 0 01-8.376 4.045l.17.022z"/><path d="M83.309 407.616c-5.891-.011-10.658-4.795-10.647-10.686a10.667 10.667 0 017.469-10.157c11.925-3.733 49.472-20.608 32-81.429-21.17-73.599 21.332-150.425 94.931-171.595l.109-.031c72.01-20.226 147.156 19.94 170.347 91.051 5.312 4.992 41.728 35.072 66.645 55.296a10.667 10.667 0 01-13.44 16.555c-68.587-55.659-70.869-59.52-71.979-61.355a10.745 10.745 0 01-1.045-2.347c-18.924-61.101-83.086-95.997-144.661-78.677-62.282 17.895-98.264 82.891-80.369 145.172l.006.022c18.176 63.168-13.483 97.493-46.123 107.691a10.554 10.554 0 01-3.243.49z"/><path d="M117.442 448.341c-5.891-.011-10.658-4.795-10.647-10.686a10.667 10.667 0 017.469-10.157c44.203-13.824 60.288-36.523 38.741-134.613-13.128-50.663 15.895-102.695 65.899-118.144 50.934-14.496 104.011 14.874 118.784 65.728 2.965 10.304 16.512 30.165 95.68 92.843 4.731 3.511 5.72 10.192 2.209 14.922-3.511 4.731-10.192 5.72-14.922 2.209a11.17 11.17 0 01-.514-.406c-87.467-69.163-98.795-89.152-102.955-103.659-11.432-39.618-52.765-62.517-92.416-51.2-39.163 12.432-61.603 53.486-50.923 93.163 21.952 100.011 8.533 140.267-53.333 159.552-.996.301-2.031.452-3.072.448z"/><path d="M384.109 427.008a10.663 10.663 0 01-7.552-3.115 284.962 284.962 0 00-22.4-17.941c-38.208-28.992-102.165-77.504-118.976-136-1.724-5.633 1.444-11.597 7.077-13.322 5.633-1.724 11.597 1.444 13.322 7.077.036.118.07.237.102.356 14.933 51.669 75.264 97.493 111.36 124.885a282.132 282.132 0 0124.597 19.861c4.159 4.172 4.149 10.926-.024 15.085a10.657 10.657 0 01-7.506 3.114zM224.109 512.341h-.683c-5.879-.366-10.349-5.428-9.984-11.307.768-12.352 6.4-74.005 42.667-74.005a69.758 69.758 0 0153.333 36.16 91.643 91.643 0 007.637 9.643c4.093 4.237 3.975 10.99-.262 15.083a10.666 10.666 0 01-14.821 0 111.785 111.785 0 01-9.749-12.053c-9.088-12.288-20.309-27.52-36.139-27.52-11.563 0-19.989 32-21.333 53.995a10.665 10.665 0 01-10.666 10.004zM160.109 491.008c-5.891.011-10.676-4.755-10.687-10.646a10.666 10.666 0 017.402-10.175c26.965-8.768 44.8-64.747 35.797-93.269-2.109-5.501.641-11.669 6.141-13.778s11.669.641 13.778 6.141c.155.404.285.817.39 1.237 11.328 35.435-8.533 106.667-49.536 120.064a10.668 10.668 0 01-3.285.426z"/><path d="M74.776 277.675c-5.891 0-10.667-4.776-10.667-10.667.118-100.099 81.234-181.216 181.333-181.333 98.432 0 133.653 56.853 159.36 98.368 12.139 19.563 22.613 36.48 35.947 40.811 5.622 1.76 8.753 7.744 6.994 13.366s-7.744 8.753-13.366 6.994a8.076 8.076 0 01-.22-.072c-20.779-6.741-33.152-26.731-47.488-49.877-24.363-39.317-54.677-88.256-141.227-88.256-88.327.094-159.906 71.673-160 160 0 5.89-4.775 10.666-10.666 10.666zM85.442 352.341a10.666 10.666 0 01-9.557-5.888 108.804 108.804 0 01-11.776-36.779c0-5.891 4.776-10.667 10.667-10.667s10.667 4.776 10.667 10.667a94.823 94.823 0 009.536 27.221c2.639 5.267.509 11.676-4.758 14.315a10.662 10.662 0 01-4.779 1.131z"/><path d="M394.776 128.341a10.669 10.669 0 01-9.131-5.141c-10.496-17.323-68.864-58.859-150.869-58.859-85.333 0-130.944 43.584-140.224 58.859-2.874 5.142-9.373 6.981-14.515 4.106-5.142-2.874-6.981-9.373-4.106-14.515.126-.226.261-.447.403-.663 11.669-19.221 62.891-69.12 158.443-69.12 89.856 0 154.475 45.013 169.109 69.141 3.052 5.039 1.44 11.598-3.599 14.649a10.66 10.66 0 01-5.511 1.543z"/><path d="M352.109 43.008a10.655 10.655 0 01-3.477-.576c-4.267-1.472-8.405-3.008-12.48-4.501a242.027 242.027 0 00-101.376-16.256c-51.2 0-62.741 5.909-78.677 14.08-3.925 2.027-8.085 4.139-12.949 6.4-5.396 2.386-11.705-.054-14.091-5.451-2.386-5.396.054-11.705 5.451-14.091 4.501-2.027 8.32-3.989 11.947-5.845C164.249 7.595 178.393.341 234.777.341a262.939 262.939 0 01108.8 17.579c3.925 1.451 7.851 2.923 11.989 4.267 5.609 1.8 8.697 7.807 6.897 13.416a10.67 10.67 0 01-10.354 7.405zM437.442 192.341a10.667 10.667 0 01-10.155-7.424 253.147 253.147 0 00-20.267-40.32c-3.087-5.019-1.521-11.59 3.499-14.677 5.019-3.087 11.59-1.521 14.677 3.499a269.338 269.338 0 0122.4 45.013c1.791 5.612-1.307 11.614-6.919 13.404a10.63 10.63 0 01-3.235.505z"/></symbol>
<symbol id="icon-check" viewBox="0 0 512 512"><path d="M437.019 74.98C388.667 26.629 324.38 0 256 0 187.619 0 123.331 26.629 74.98 74.98 26.628 123.332 0 187.62 0 256s26.628 132.667 74.98 181.019C123.332 485.371 187.619 512 256 512c68.38 0 132.667-26.629 181.019-74.981C485.371 388.667 512 324.38 512 256s-26.629-132.667-74.981-181.02zM256 482C131.383 482 30 380.617 30 256S131.383 30 256 30s226 101.383 226 226-101.383 226-226 226z"/><path d="M378.305 173.859c-5.857-5.856-15.355-5.856-21.212.001L224.634 306.319l-69.727-69.727c-5.857-5.857-15.355-5.857-21.213 0-5.858 5.857-5.858 15.355 0 21.213l80.333 80.333c2.929 2.929 6.768 4.393 10.606 4.393s7.678-1.465 10.606-4.393l143.066-143.066c5.858-5.857 5.858-15.355 0-21.213z"/></symbol>
<symbol id="icon-frown" viewBox="0 0 121.6 121.6"><path d="M30 108.785c9 4.601 19.1 7 29.2 7.2h1.6c10.2 0 20.3-2.2 29.5-6.6 8.399-4 16-10 21.601-17.5 6.399-8.601 9.699-18.9 9.699-29.601v-20.3-22.1-7.7c0-4.7-4.699-7.8-9-6.1l-22.8 9.5c-1.5.6-3.2.7-4.7.1-7.4-2.9-15.6-4.4-24.3-4.4s-16.9 1.6-24.3 4.4c-1.5.6-3.2.5-4.7-.1L9 6.385c-4.3-1.8-9 1.4-9 6.1v51.1c0 9.9 3.2 19.5 8.9 27.5 5.4 7.5 12.8 13.5 21.1 17.7zm53-46.3c5.5 0 10 4.5 10 10s-4.5 10-10 10-10-4.5-10-10c0-5.599 4.5-10 10-10zm-44.4 0c5.5 0 10 4.5 10 10s-4.5 10-10 10-10-4.5-10-10c0-5.599 4.5-10 10-10z"/></symbol>
<symbol id="icon-palette" viewBox="0 0 459 459"><path d="M229.5 0C102 0 0 102 0 229.5S102 459 229.5 459c20.4 0 38.25-17.85 38.25-38.25 0-10.2-2.55-17.85-10.2-25.5-5.1-7.65-10.2-15.3-10.2-25.5 0-20.4 17.851-38.25 38.25-38.25h45.9c71.4 0 127.5-56.1 127.5-127.5C459 91.8 357 0 229.5 0zM89.25 229.5c-20.4 0-38.25-17.85-38.25-38.25S68.85 153 89.25 153s38.25 17.85 38.25 38.25-17.85 38.25-38.25 38.25zm76.5-102c-20.4 0-38.25-17.85-38.25-38.25S145.35 51 165.75 51 204 68.85 204 89.25s-17.85 38.25-38.25 38.25zm127.5 0c-20.4 0-38.25-17.85-38.25-38.25S272.85 51 293.25 51s38.25 17.85 38.25 38.25-17.85 38.25-38.25 38.25zm76.5 102c-20.4 0-38.25-17.85-38.25-38.25S349.35 153 369.75 153 408 170.85 408 191.25s-17.85 38.25-38.25 38.25z"/></symbol>
</svg></svg>